<svg width="150" height="151" viewBox="0 0 150 151" fill="none" xmlns="http://www.w3.org/2000/svg">
<path d="M87.9289 100.473L78.8049 101.962L78.8948 135.102C78.9203 142.531 83.2664 146.033 90.5392 146.01C92.2865 146.01 93.9275 145.673 93.9275 145.673L93.9109 140.156C93.8116 140.138 93.14 140.138 92.6299 140.129C88.7938 140.005 88.0322 137.894 88.0229 135.462L87.9721 116.81L93.8463 116.791L93.8278 110.25L87.9583 110.269L87.9289 100.473ZM144.375 139.962C140.668 139.693 139.888 138.07 139.883 135.36L139.784 100.279L130.87 101.826L130.96 134.811C130.979 142.624 135.232 145.961 142.334 145.94C143.858 145.94 145.741 145.574 145.741 145.574L145.728 139.974C145.728 139.974 144.893 140 144.376 139.956M55.135 116.684L55.2018 145.82L64.2773 145.794L64.2034 118.364C65.3921 117.212 67.9057 116.187 70.2853 116.084C72.4988 115.991 73.9367 116.451 73.9367 116.451L76.4341 110.8C75.4532 110.332 73.1289 109.732 70.4307 109.739C66.5208 109.757 60.5221 110.914 55.135 116.684ZM113.6 140.02C111.159 140.02 109.501 139.23 108.426 138.074C106.817 136.343 106.095 132.781 106.275 129.008L125.473 128.954V128.07C125.27 115.498 120.966 109.797 111.586 109.822C101.121 109.852 97.0652 119.479 97.0121 128.539C96.9659 134.256 99.1356 140.008 103.11 143.283C105.501 145.275 108.843 146.366 112.705 146.357C114.815 146.357 117.017 146.039 119.018 145.413C122.863 144.208 125.702 142.14 125.702 142.14L123.17 136.979C122.724 137.319 118.893 140.006 113.6 140.02ZM111.599 116.444C115.56 116.426 116.151 120.728 116.156 123.394L106.526 123.42C106.672 119.99 108.084 116.453 111.599 116.444ZM19.6848 109.796C15.4287 109.814 11.611 111.021 7.68957 112.992L6.68785 113.5L9.09521 118.837L10.4478 118.195C13.2152 116.939 16.1857 116.099 18.8493 116.203C22.0714 116.329 23.3986 117.803 23.4078 120.893L23.4115 122.7L18.1328 122.719C9.65054 122.739 4.39266 127.257 4.25879 134.232C4.27965 140.858 9.82595 146.564 17.5143 146.541C23.7139 146.522 28.9648 144.489 32.5008 140.934L32.4523 122.01C32.4246 112.794 25.8326 109.78 19.6838 109.798M23.4483 139.185C22.5736 139.801 20.7825 140.339 18.8275 140.344C15.2476 140.362 13.6227 137.615 13.6735 134.416C13.7311 131.76 15.3769 128.75 19.8477 128.738L23.4183 128.72L23.4484 139.176L23.4483 139.185ZM39.182 145.834L48.0844 145.808L47.9851 110.353L39.0873 111.831L39.182 145.834ZM43.5887 96.1909C40.4266 96.1909 37.8484 98.7461 37.8623 101.867C37.8659 105.049 40.3689 107.538 43.5425 107.526C46.7139 107.526 49.1905 105.026 49.1789 101.876C49.2275 100.371 48.6734 98.9492 47.6279 97.8828C46.5685 96.7864 45.1305 96.1863 43.5887 96.1909Z" fill="#F21016"/>
<path d="M109.536 20.3438C108.04 15.6076 105.155 11.7137 100.977 8.78018C100.488 8.38318 95.2647 4.21695 85.4414 4.24464C76.4536 4.2705 66.6095 7.76221 56.1791 14.645L55.8514 14.8644L55.8006 14.8921L54.8681 15.4805L54.0649 16.0276C51.9345 17.4794 49.8965 19.0513 48.0015 20.727C43.5999 25.0108 38.5844 32.1613 38.9191 38.22C39.0576 40.7983 40.1355 42.8917 42.1227 44.4405C43.9115 45.8414 46.1481 46.5431 48.7516 46.5339C54.1111 46.5154 59.9691 43.5911 63.9736 41.1168L64.7307 40.5952C65.4301 40.1382 66.1271 39.6695 66.8219 39.1941L67.512 38.7348C73.2015 34.8964 79.0941 30.9264 85.7299 28.5976C87.4518 27.9951 88.9566 27.7043 90.3461 27.6997C91.0316 27.6997 91.6987 27.7661 92.3403 27.9213C94.3599 28.3807 95.8464 29.5231 96.7327 31.328C98.2837 34.4695 97.9306 39.4227 95.8464 43.9626C93.0005 50.1508 88.1073 56.251 81.2914 62.1068C77.8315 65.0796 74.6163 67.3831 71.7589 68.9502L71.5027 69.0869C70.1755 69.8255 68.673 70.6494 67.0919 71.2587L66.8749 71.34C66.4018 71.5172 66.0025 71.6792 65.6401 71.7992C61.3332 72.9671 61.4047 70.9568 62.0648 69.3618C62.4203 68.4894 63.6251 66.9823 65.0885 65.4497C65.8871 64.6394 66.7041 63.8731 67.5489 63.0791C68.456 62.2344 69.3862 61.3643 70.3209 60.4088L70.5287 60.2079C71.6874 59.0353 73.2799 57.4335 73.1807 55.1392C73.0398 52.1018 69.9447 50.2161 67.0457 50.1423H66.8357C64.0429 50.1423 61.4116 51.7903 59.6898 53.1705C57.9702 54.5576 56.1284 56.6395 54.9097 58.5946C53.1486 61.4173 49.4233 68.6094 53.077 74.3427C54.545 76.637 56.9778 77.7957 60.3176 77.7864C62.6534 77.7864 65.4093 77.2048 68.5183 76.0692C73.1692 74.3704 76.846 72.0346 80.4028 69.7727L81.3606 69.1611C85.1275 66.7767 88.7881 64.0024 92.5735 60.6811C100.927 53.3275 105.935 46.1376 108.79 37.3461C109.944 33.7846 111.581 26.8435 109.536 20.3438Z" fill="#F21016"/>
</svg>
