<svg width="876" height="206" viewBox="0 0 876 206" fill="none" xmlns="http://www.w3.org/2000/svg">
<g clip-path="url(#clip0_29_24)">
<path d="M605.197 6.26477V199.735H634.212V6.26477H605.197ZM295.209 2.95986C238.683 2.95961 194.826 44.1011 194.826 103C194.826 164.551 238.683 203.041 295.209 203.04C351.734 203.039 395.682 164.551 395.592 103C395.51 47.1955 351.734 2.96011 295.209 2.95986ZM366.629 103C366.629 146.603 334.653 175.499 295.209 175.499C255.764 175.499 223.789 146.603 223.789 103C223.789 60.1881 255.764 30.5016 295.209 30.5016C334.653 30.5016 366.629 60.1881 366.629 103ZM0 1.74586e-05V199.735H29.6121V67.7385L183.493 206V164.589L0 1.74586e-05ZM417.414 103L525.099 199.736H568.277L460.43 103L568.277 6.26467H525.099L417.414 103ZM875.5 199.735H843.58L820.241 156.892H714.521L691.176 199.735H659.257L697.913 128.326H805.058L751.632 29.0866L767.381 0L875.5 199.735Z" fill="#005AFF"/>
</g>
<defs>
<clipPath id="clip0_29_24">
<rect width="875.5" height="206" fill="white"/>
</clipPath>
</defs>
</svg>
