<svg width="150" height="28" viewBox="0 0 150 28" fill="none" xmlns="http://www.w3.org/2000/svg">
<g clip-path="url(#clip0_28_10)">
<path d="M15.6475 11.2785H18.2991C18.4114 11.2785 18.5035 11.1868 18.5035 11.075V6.52351C18.5035 6.41173 18.4114 6.32001 18.2991 6.32001H15.6475C15.5352 6.32001 15.4431 6.41173 15.4431 6.52351V11.075C15.4431 11.1868 15.5352 11.2785 15.6475 11.2785Z" fill="#0038BA"/>
<path d="M10.6697 11.2785H13.3213C13.4335 11.2785 13.5257 11.1868 13.5257 11.075V6.52351C13.5257 6.41173 13.4335 6.32001 13.3213 6.32001H10.6697C10.5574 6.32001 10.4653 6.41173 10.4653 6.52351V11.075C10.4653 11.1868 10.5574 11.2785 10.6697 11.2785Z" fill="#0038BA"/>
<path d="M20.8499 1.50478H8.19083C7.23788 1.50478 6.46342 2.27579 6.46342 3.2245V13.9556C6.30219 14.3225 5.90777 15.2798 5.3953 16.9422C4.81086 18.831 4.07095 20.5335 3.69092 20.4676C3.18709 20.3788 3.21012 20.2183 3.21588 18.5301C3.21588 18.5301 3.18709 17.5154 3.61894 15.681C4.0508 13.8467 5.30029 11.8948 5.30029 11.1524C5.30029 10.4101 5.3406 8.34069 4.5172 6.54644C3.6938 4.74933 3.53833 4.59455 3.42029 4.41971C3.30225 4.24487 3.23603 4.05857 2.95101 3.53979C2.57098 2.84903 1.64969 1.36433 1.2783 0.667845C0.817653 -0.194884 0.673702 -0.0745036 0.319582 0.220716C0.319582 0.220716 0.987516 1.28408 1.53453 2.27579C1.53453 2.27579 2.35793 3.56272 2.47597 4.05857C2.59401 4.55442 2.39824 4.68914 2.12185 4.77799C1.84546 4.86684 1.65257 5.13913 1.69 5.52894C1.7303 5.91874 1.88001 6.81586 1.88001 6.81586C1.88001 6.81586 -0.00286865 8.14292 -0.00286865 8.29769C-0.00286865 8.45247 1.25239 12.5913 1.25239 12.7088C1.25239 12.8263 1.17465 13.2505 1.88001 13.1932L3.15542 13.176C3.15542 13.176 2.65447 14.2995 2.2658 17.6874C2.05275 19.5361 2.12761 20.2441 2.34354 21.3017C2.53931 22.302 3.36559 23.0243 4.22642 21.9323C4.9289 21.0409 5.89337 18.2262 6.46054 17.4323V26.3892C6.46054 27.2777 7.18317 27.9972 8.07567 27.9972H20.9708C21.8633 27.9972 22.5859 27.2749 22.5859 26.3863V3.23597C22.5859 2.27865 21.8057 1.50478 20.8441 1.50478M3.05753 12.4336C3.02586 12.4422 2.99132 12.4451 2.95677 12.4394H2.95965L1.83395 12.3419C1.69863 12.3305 1.58635 12.2359 1.55468 12.104L0.745677 8.96839C0.702492 8.79928 0.806137 8.62444 0.975999 8.58145C0.975999 8.58145 0.981757 8.58145 0.984636 8.58145L2.08154 8.33495C2.25141 8.29483 2.42127 8.40088 2.46158 8.56998L3.29361 12.0524C3.33392 12.2215 3.2274 12.3935 3.05465 12.4336M8.24265 5.85568C8.24265 5.48881 8.54207 5.19072 8.91059 5.19072H19.9488C20.3173 5.19072 20.6167 5.48881 20.6167 5.85568V12.0524C20.6167 12.4193 20.3173 12.7174 19.9488 12.7174H8.91347C8.54495 12.7174 8.24553 12.4193 8.24553 12.0524V5.85568H8.24265ZM21.6906 17.5641C21.6675 17.7562 21.5063 17.8823 21.3336 17.8823C21.2961 17.8823 21.2558 17.8766 21.2184 17.8651L20.4296 17.6043C19.8969 20.3558 17.4354 22.4424 14.4873 22.4424C11.5391 22.4424 9.08333 20.3587 8.54783 17.6129L7.77913 17.868C7.7417 17.8794 7.70428 17.8852 7.66397 17.8852C7.49123 17.8852 7.33 17.7591 7.30697 17.567C7.28682 17.3979 7.3991 17.2374 7.56033 17.1829L8.44994 16.8877L9.15818 16.6527L9.90097 16.4062C10.114 16.3345 10.3443 16.4721 10.3731 16.7043C10.3933 16.8763 10.281 17.0339 10.1169 17.0884L9.6361 17.2489C9.4029 17.3263 9.26471 17.5699 9.32805 17.8078C9.92688 20.0578 12.0113 21.7259 14.4844 21.7259C16.9575 21.7259 19.0534 20.052 19.6436 17.7906C19.704 17.5584 19.5716 17.3205 19.3442 17.2431L18.8749 17.0884C18.7108 17.0339 18.5956 16.8734 18.6187 16.7043C18.6474 16.4721 18.8778 16.3345 19.0908 16.4062L19.8106 16.6441L20.5217 16.8791L21.4343 17.1829C21.5984 17.2374 21.7107 17.395 21.6877 17.567" fill="#0038BA"/>
<path d="M43.3264 6.89037C42.1028 5.82987 40.3841 5.29962 38.1701 5.29962H30.532V22.6029H35.0694V17.7906H38.1701C40.3841 17.7906 42.1028 17.2259 43.3264 16.0995C44.55 14.9731 45.1604 13.3967 45.1604 11.3731C45.1604 9.34958 44.5471 7.95373 43.3264 6.89323M40.0904 13.5457C39.5866 14.0072 38.8697 14.2365 37.9455 14.2365H35.0694V8.85372H37.9455C38.8726 8.85372 39.5866 9.07442 40.0904 9.52155C40.5942 9.96581 40.8476 10.625 40.8476 11.4964C40.8476 12.3677 40.5942 13.0842 40.0904 13.5457Z" fill="#0038BA"/>
<path d="M57.2004 10.1005C56.1669 9.44992 54.8656 9.12604 53.2965 9.12604C51.9088 9.12604 50.6852 9.40979 49.6257 9.9773C48.5691 10.5448 47.7486 11.3445 47.1699 12.3706C46.5912 13.3996 46.3033 14.6034 46.3033 15.9877C46.3033 17.3721 46.5884 18.5215 47.1584 19.5418C47.7285 20.5622 48.5461 21.3533 49.6142 21.9122C50.6795 22.4711 51.9405 22.752 53.3944 22.752C54.6496 22.752 55.7696 22.5456 56.7542 22.1358C57.7388 21.723 58.568 21.1469 59.2474 20.4074L56.9413 18.1374C56.0316 19.0431 54.9836 19.496 53.7917 19.496C53.1468 19.496 52.5796 19.3441 52.0931 19.0403C51.6036 18.7364 51.2294 18.3036 50.9645 17.7447C50.8695 17.547 50.8004 17.3291 50.7399 17.1027H60.0651C60.163 15.489 59.9701 14.0817 59.4835 12.8808C58.9941 11.6798 58.234 10.754 57.2033 10.1034M50.6507 14.7811C50.7054 14.4572 50.7917 14.1562 50.9069 13.8811C51.1286 13.3451 51.4453 12.9266 51.8483 12.6228C52.2543 12.319 52.7437 12.1671 53.3224 12.1671C53.8176 12.1671 54.2552 12.2731 54.6352 12.4881C55.0153 12.7031 55.3089 13.004 55.5162 13.3881C55.7235 13.775 55.8185 14.2394 55.8012 14.7839H50.6478L50.6507 14.7811Z" fill="#0038BA"/>
<path d="M69.3384 19.1721C69.0563 19.2552 68.8 19.2954 68.5697 19.2954C68.1897 19.3126 67.8903 19.2036 67.6772 18.9744C67.4613 18.7451 67.3548 18.3753 67.3548 17.8651V12.7547H70.8269V9.89134H67.3548V6.21399H62.9672V9.89134H61.1073V12.7547H62.9672V18.5559C62.9672 19.4788 63.1629 20.2555 63.5516 20.889C63.9403 21.5224 64.4729 22.0011 65.1494 22.3221C65.826 22.6431 66.5947 22.8036 67.4555 22.8036C68.1177 22.8036 68.7655 22.7262 69.4018 22.5686C70.038 22.4138 70.5966 22.1874 71.0745 21.8893L70.2309 18.854C69.9171 18.9858 69.6177 19.0919 69.3384 19.175" fill="#0038BA"/>
<path d="M77.5954 11.4792V9.27223H73.1819V22.603H77.5954V15.8301C77.6501 15.2855 77.8142 14.804 78.105 14.397C78.4591 13.8954 78.9658 13.52 79.6165 13.2735C80.27 13.027 81.033 12.9524 81.9111 13.0528V9.07733C80.8199 9.07733 79.8699 9.35249 79.058 9.90567C78.4735 10.3041 77.987 10.8315 77.5954 11.4821" fill="#0038BA"/>
<path d="M96.4905 12.3333C95.8773 11.313 95.0222 10.5247 93.9253 9.96297C92.8255 9.40406 91.5415 9.12317 90.0703 9.12317C88.5991 9.12317 87.3122 9.40406 86.2153 9.96297C85.1155 10.5219 84.2633 11.313 83.6616 12.3333C83.057 13.3537 82.7576 14.546 82.7576 15.9132C82.7576 17.2804 83.0599 18.4756 83.6616 19.5046C84.2662 20.5335 85.1155 21.3304 86.2153 21.8979C87.3151 22.4654 88.5991 22.7491 90.0703 22.7491C91.5415 22.7491 92.8255 22.4654 93.9253 21.8979C95.0251 21.3304 95.8802 20.5307 96.4905 19.5046C97.1009 18.4756 97.4089 17.2804 97.4089 15.9132C97.4089 14.546 97.1037 13.3537 96.4905 12.3333ZM92.6096 17.7533C92.3706 18.2549 92.0309 18.6476 91.5933 18.9256C91.1557 19.2065 90.6461 19.3441 90.0674 19.3441C89.4887 19.3441 88.9849 19.2036 88.5559 18.9256C88.1269 18.6476 87.7901 18.2549 87.5511 17.7533C87.3122 17.2517 87.1913 16.6642 87.1913 15.9877C87.1913 15.3113 87.3122 14.7209 87.5511 14.2107C87.7901 13.7005 88.1241 13.305 88.5559 13.0269C88.9849 12.7489 89.4887 12.6085 90.0674 12.6085C90.6461 12.6085 91.1528 12.7489 91.5933 13.0269C92.0309 13.3078 92.3706 13.7034 92.6096 14.2107C92.8485 14.7209 92.9695 15.3142 92.9695 15.9877C92.9695 16.6613 92.8485 17.2517 92.6096 17.7533Z" fill="#0038BA"/>
<path d="M104.748 5.29962L97.2851 22.6058H101.946L103.164 19.496H110.67L111.864 22.6058H116.698L109.409 5.29962H104.748ZM104.497 16.088L106.953 9.81677L109.36 16.088H104.497Z" fill="#0038BA"/>
<path d="M130.025 9.9773C129.093 9.40979 127.996 9.12604 126.74 9.12604C125.632 9.12604 124.679 9.40119 123.876 9.95437C123.467 10.2353 123.11 10.5763 122.796 10.9805V9.27508H118.383V27.3953H122.796V20.8689C123.121 21.2845 123.496 21.637 123.925 21.9265C124.742 22.4768 125.715 22.7549 126.838 22.7549C128.094 22.7549 129.182 22.474 130.1 21.9151C131.019 21.3562 131.727 20.5651 132.234 19.5447C132.737 18.5243 132.991 17.3463 132.991 16.0135C132.991 14.6148 132.732 13.4024 132.211 12.3735C131.689 11.3445 130.961 10.5477 130.028 9.98017M128.194 17.6444C127.955 18.1546 127.616 18.553 127.178 18.8425C126.74 19.132 126.231 19.2753 125.652 19.2753C125.108 19.2753 124.616 19.1348 124.178 18.8568C123.74 18.5759 123.401 18.1775 123.162 17.6587C122.923 17.14 122.802 16.5524 122.802 15.8932C122.802 15.2339 122.923 14.6292 123.162 14.1276C123.401 13.626 123.74 13.2304 124.178 12.9438C124.616 12.6572 125.108 12.511 125.652 12.511C126.231 12.511 126.74 12.6543 127.178 12.9438C127.616 13.2333 127.955 13.6317 128.194 14.1419C128.433 14.6521 128.554 15.2368 128.554 15.8932C128.554 16.5495 128.433 17.1371 128.194 17.6473" fill="#0038BA"/>
<path d="M149.217 12.3706C148.696 11.3416 147.967 10.5448 147.035 9.9773C146.102 9.40979 145.005 9.12604 143.75 9.12604C142.641 9.12604 141.688 9.40119 140.885 9.95437C140.476 10.2353 140.119 10.5763 139.805 10.9805V9.27508H135.392V27.3953H139.805V20.8689C140.131 21.2845 140.505 21.637 140.934 21.9265C141.752 22.4768 142.725 22.7549 143.848 22.7549C145.103 22.7549 146.191 22.474 147.109 21.9151C148.028 21.3562 148.736 20.5651 149.243 19.5447C149.747 18.5243 150 17.3463 150 16.0135C150 14.6148 149.741 13.4024 149.22 12.3735M145.204 17.6444C144.965 18.1546 144.625 18.553 144.187 18.8425C143.75 19.132 143.24 19.2753 142.661 19.2753C142.117 19.2753 141.625 19.1348 141.187 18.8568C140.75 18.5759 140.41 18.1775 140.171 17.6587C139.932 17.14 139.811 16.5524 139.811 15.8932C139.811 15.2339 139.932 14.6292 140.171 14.1276C140.41 13.626 140.75 13.2304 141.187 12.9438C141.625 12.6572 142.117 12.511 142.661 12.511C143.24 12.511 143.75 12.6543 144.187 12.9438C144.625 13.2333 144.965 13.6317 145.204 14.1419C145.443 14.6521 145.563 15.2368 145.563 15.8932C145.563 16.5495 145.443 17.1371 145.204 17.6473" fill="#0038BA"/>
</g>
<defs>
<clipPath id="clip0_28_10">
<rect width="150" height="28" fill="white"/>
</clipPath>
</defs>
</svg>
